<?xml version="1.0" encoding="utf-8"?>
<!-- Generator: Adobe Illustrator 23.0.1, SVG Export Plug-In . SVG Version: 6.00 Build 0)  -->
<svg version="1.1" id="Layer_1" xmlns="http://www.w3.org/2000/svg" xmlns:xlink="http://www.w3.org/1999/xlink" x="0px" y="0px"
	 viewBox="0 0 1000 1000" style="enable-background:new 0 0 1000 1000;" xml:space="preserve">
<style type="text/css">
	.st0{fill:#4A555C;}
	.st1{fill:#B01116;}
</style>
<g>
	<path class="st0" d="M992.16,655.17H854.23c-5.19,0-9.4,4.21-9.4,9.4V990.6c0,5.19,4.21,9.4,9.4,9.4h137.93
		c5.19,0,9.4-4.21,9.4-9.4V664.58C1001.57,659.38,997.36,655.17,992.16,655.17z"/>
	<path class="st0" d="M780.56,717.87H642.63c-5.19,0-9.4,4.21-9.4,9.4V990.6c0,5.19,4.21,9.4,9.4,9.4h137.93
		c5.19,0,9.4-4.21,9.4-9.4V727.27C789.97,722.08,785.76,717.87,780.56,717.87z"/>
	<path class="st0" d="M568.97,811.91H431.03c-5.19,0-9.4,4.21-9.4,9.4V990.6c0,5.19,4.21,9.4,9.4,9.4h137.93
		c5.19,0,9.4-4.21,9.4-9.4V821.32C578.37,816.12,574.16,811.91,568.97,811.91z"/>
	<path class="st0" d="M357.37,717.87H219.44c-5.19,0-9.4,4.21-9.4,9.4V990.6c0,5.19,4.21,9.4,9.4,9.4h137.93
		c5.19,0,9.4-4.21,9.4-9.4V727.27C366.77,722.08,362.56,717.87,357.37,717.87z"/>
	<path class="st0" d="M145.77,874.61H7.84c-5.19,0-9.4,4.21-9.4,9.4V990.6c0,5.19,4.21,9.4,9.4,9.4h137.93c5.19,0,9.4-4.21,9.4-9.4
		V884.01C155.17,878.82,150.96,874.61,145.77,874.61z"/>
	<path class="st1" d="M990.85,379.75L942.1,396c-5.24,1.75-9.07,6.16-10.29,11.55c-1.58,6.94-3.42,13.79-5.5,20.52
		c-1.63,5.28-0.52,11,3.15,15.13l34.09,38.44c4.48,5.05,5.22,12.39,1.85,18.24l-20.05,34.73c-3.37,5.84-10.11,8.87-16.72,7.52
		l-50.42-10.32c-5.41-1.11-10.92,0.79-14.67,4.84c-4.8,5.18-9.8,10.17-14.97,14.97c-4.05,3.76-5.94,9.27-4.84,14.67l10.32,50.42
		c1.35,6.61-1.68,13.34-7.52,16.72l-34.73,20.05c-5.84,3.37-13.19,2.63-18.24-1.85l-38.44-34.09c-4.13-3.67-9.85-4.78-15.13-3.15
		c-6.74,2.08-13.58,3.92-20.52,5.5c-5.39,1.23-9.8,5.05-11.55,10.29l-16.25,48.75c-2.13,6.4-8.12,10.72-14.87,10.72h-40.1
		c-6.75,0-12.74-4.32-14.87-10.72l-16.25-48.75c-1.75-5.24-6.16-9.07-11.55-10.29c-6.94-1.58-13.79-3.42-20.53-5.5
		c-5.28-1.63-11-0.52-15.13,3.15l-38.44,34.09c-5.05,4.48-12.39,5.22-18.24,1.85l-34.73-20.05c-5.84-3.37-8.87-10.11-7.52-16.72
		l10.32-50.42c1.11-5.41-0.79-10.92-4.84-14.67c-5.18-4.8-10.17-9.8-14.97-14.97c-3.76-4.05-9.27-5.94-14.67-4.84l-50.42,10.32
		c-6.61,1.35-13.34-1.68-16.72-7.52l-20.05-34.73c-3.37-5.84-2.63-13.19,1.85-18.24l34.09-38.44c3.67-4.13,4.78-9.85,3.15-15.13
		c-2.08-6.74-3.92-13.58-5.5-20.52c-1.23-5.39-5.05-9.8-10.29-11.55l-48.75-16.25c-6.4-2.13-10.72-8.12-10.72-14.87v-40.1
		c0-6.75,4.32-12.74,10.72-14.87l48.75-16.25c5.24-1.75,9.07-6.16,10.29-11.55c1.58-6.94,3.42-13.79,5.5-20.52
		c1.63-5.28,0.52-11-3.15-15.13l-34.09-38.44c-4.48-5.05-5.22-12.39-1.85-18.24l20.05-34.73c3.37-5.84,10.11-8.87,16.72-7.52
		l50.42,10.32c5.41,1.11,10.92-0.79,14.67-4.84c4.8-5.18,9.8-10.17,14.97-14.97c4.05-3.76,5.94-9.27,4.84-14.67l-10.32-50.42
		c-1.35-6.61,1.68-13.34,7.52-16.72l34.73-20.05c5.84-3.37,13.19-2.63,18.24,1.85l38.44,34.09c4.13,3.67,9.85,4.78,15.13,3.15
		c6.74-2.08,13.58-3.92,20.52-5.5c5.39-1.23,9.8-5.05,11.55-10.29l16.25-48.75C623.95,4.32,629.94,0,636.69,0h40.1
		c6.75,0,12.74,4.32,14.87,10.72l16.25,48.75c1.75,5.24,6.16,9.07,11.55,10.29c6.94,1.58,13.79,3.42,20.52,5.5
		c5.28,1.63,11,0.52,15.13-3.15l38.44-34.09c5.05-4.48,12.39-5.22,18.24-1.85l34.73,20.05c5.84,3.37,8.87,10.11,7.52,16.72
		l-10.32,50.42c-1.11,5.41,0.79,10.92,4.84,14.68c5.18,4.8,10.17,9.8,14.97,14.97c3.76,4.05,9.27,5.94,14.68,4.84l50.42-10.32
		c6.61-1.35,13.34,1.68,16.72,7.52l20.05,34.73c3.37,5.84,2.63,13.19-1.85,18.24l-34.09,38.44c-3.67,4.13-4.78,9.85-3.15,15.13
		c2.08,6.74,3.92,13.58,5.5,20.52c1.23,5.39,5.05,9.8,10.29,11.55l48.75,16.25c6.4,2.13,10.72,8.12,10.72,14.87v40.1
		C1001.57,371.63,997.25,377.61,990.85,379.75z M656.74,94.04c-138.5,0-250.78,112.28-250.78,250.78s112.28,250.78,250.78,250.78
		s250.78-112.28,250.78-250.78S795.24,94.04,656.74,94.04z"/>
	<path class="st1" d="M876.18,344.83c0,121.19-98.24,219.44-219.44,219.44S437.3,466.02,437.3,344.83s98.24-219.44,219.44-219.44
		S876.18,223.64,876.18,344.83z M656.74,156.74c-103.88,0-188.09,84.21-188.09,188.09s84.21,188.09,188.09,188.09
		s188.09-84.21,188.09-188.09S760.62,156.74,656.74,156.74z"/>
	<path class="st0" d="M347.43,285.6l-42.31,4.19c-2.79,0.28-5.26,1.83-6.82,4.16c-3.35,5-7.02,9.77-10.97,14.29
		c-1.85,2.11-2.71,4.9-2.26,7.67l6.9,41.96c0.64,3.86-1.19,7.71-4.58,9.67l-26.72,15.43c-3.39,1.96-7.64,1.61-10.66-0.87
		l-32.85-26.92c-2.17-1.78-5-2.43-7.75-1.89c-5.84,1.15-11.81,1.92-17.88,2.31c-2.81,0.18-5.41,1.55-7.05,3.83l-24.8,34.56
		c-2.28,3.18-6.29,4.61-10.07,3.6l-29.8-7.99c-3.78-1.01-6.54-4.26-6.92-8.16l-4.19-42.31c-0.28-2.79-1.83-5.26-4.16-6.82
		c-5-3.35-9.77-7.02-14.29-10.97c-2.11-1.85-4.9-2.71-7.67-2.26l-41.96,6.9c-3.86,0.64-7.71-1.19-9.67-4.58L15.51,294.7
		c-1.96-3.39-1.61-7.64,0.87-10.66l26.92-32.85c1.78-2.17,2.43-5,1.89-7.75c-1.15-5.84-1.92-11.81-2.31-17.88
		c-0.18-2.81-1.55-5.41-3.83-7.05l-34.56-24.8c-3.18-2.28-4.61-6.29-3.6-10.07l7.99-29.8c1.01-3.78,4.26-6.54,8.16-6.92l42.3-4.19
		c2.79-0.28,5.26-1.83,6.82-4.16c3.35-5,7.02-9.77,10.97-14.29c1.85-2.11,2.71-4.9,2.26-7.67l-6.9-41.96
		c-0.64-3.86,1.19-7.71,4.58-9.67l26.72-15.43c3.39-1.96,7.64-1.61,10.66,0.87l32.85,26.92c2.17,1.78,5,2.43,7.75,1.89
		c5.84-1.15,11.81-1.92,17.88-2.31c2.81-0.18,5.41-1.55,7.05-3.83l24.8-34.56c2.28-3.18,6.29-4.61,10.07-3.6l29.8,7.99
		c3.78,1.01,6.54,4.26,6.92,8.16l4.19,42.3c0.28,2.79,1.83,5.26,4.16,6.82c5,3.35,9.77,7.02,14.29,10.97
		c2.11,1.85,4.9,2.71,7.67,2.26l41.96-6.9c3.86-0.64,7.71,1.19,9.67,4.58l15.43,26.72c1.96,3.39,1.61,7.64-0.87,10.66l-26.92,32.85
		c-1.78,2.17-2.43,5-1.89,7.75c1.15,5.84,1.92,11.81,2.31,17.88c0.18,2.81,1.55,5.41,3.83,7.05l34.56,24.8
		c3.18,2.28,4.61,6.29,3.6,10.08l-7.99,29.8C354.58,282.46,351.33,285.21,347.43,285.6z M182.23,100.27
		c-64.06,0-115.99,51.93-115.99,115.99s51.93,115.99,115.99,115.99s115.99-51.93,115.99-115.99S246.29,100.27,182.23,100.27z"/>
	<path class="st0" d="M182.23,115.94c-55.4,0-100.31,44.91-100.31,100.31s44.91,100.31,100.31,100.31s100.31-44.91,100.31-100.31
		S237.63,115.94,182.23,115.94z M182.23,294.62c-43.28,0-78.37-35.09-78.37-78.37s35.09-78.37,78.37-78.37s78.37,35.09,78.37,78.37
		S225.51,294.62,182.23,294.62z"/>
	<path class="st0" d="M182.23,162.96c-29.43,0-53.29,23.86-53.29,53.29c0,29.43,23.86,53.29,53.29,53.29s53.29-23.86,53.29-53.29
		C235.52,186.82,211.66,162.96,182.23,162.96z M182.23,247.6c-17.31,0-31.35-14.04-31.35-31.35c0-17.31,14.03-31.35,31.35-31.35
		s31.35,14.04,31.35,31.35C213.58,233.57,199.54,247.6,182.23,247.6z"/>
	<path class="st0" d="M325.74,487.74l-72.09,72.09c-2.45,2.45-6.42,2.45-8.87,0L128.26,443.3c-2.45-2.45-6.42-2.45-8.87,0
		L3.02,559.67c-2.94,2.94-4.59,6.93-4.59,11.08v81.06c0,13.96,16.88,20.96,26.76,11.08l94.2-94.2c2.45-2.45,6.42-2.45,8.87,0
		l116.53,116.53c2.45,2.45,6.42,2.45,8.87,0L372.47,566.4C353.75,542.41,337.97,516.03,325.74,487.74z"/>
	<path class="st0" d="M661.17,340.39c-2.45,2.45-6.42,2.45-8.87,0l-85.18-85.18c-2.45-2.45-6.42-2.45-8.87,0l-73.1,73.1
		c-0.52,5.44-0.83,10.93-0.83,16.51c0,31.51,8.59,60.95,23.35,86.37l50.58-50.58c2.45-2.45,6.42-2.45,8.87,0l85.18,85.18
		c2.45,2.45,6.42,2.45,8.87,0L823.86,303.1c-7.68-30.82-23.45-58.44-45.2-80.19L661.17,340.39z"/>
	<path class="st0" d="M996.98,129.98c2.94-2.94,4.59-6.93,4.59-11.08V37.84c0-13.96-16.88-20.96-26.76-11.08l-63.16,63.16
		c21.07,21.08,39.5,44.78,54.86,70.53L996.98,129.98z"/>
</g>
</svg>
