<?xml version="1.0" encoding="utf-8"?>
<!-- Generator: Adobe Illustrator 23.0.1, SVG Export Plug-In . SVG Version: 6.00 Build 0)  -->
<svg version="1.1" id="Layer_1" xmlns="http://www.w3.org/2000/svg" xmlns:xlink="http://www.w3.org/1999/xlink" x="0px" y="0px"
	 viewBox="0 0 1000 1000" style="enable-background:new 0 0 1000 1000;" xml:space="preserve">
<style type="text/css">
	.st0{fill:#00648C;}
</style>
<g>
	<path class="st0" d="M576.92,923.08c0,21.24-17.22,38.46-38.46,38.46h-76.92c-21.24,0-38.46-17.22-38.46-38.46H0
		C0,965.56,34.44,1000,76.92,1000h846.15c42.48,0,76.92-34.44,76.92-76.92H576.92z"/>
	<path class="st0" d="M653.85,307.69H76.92c-21.24,0-38.46,17.22-38.46,38.46v538.46h38.46V365.38c0-10.62,8.61-19.23,19.23-19.23
		h557.69V307.69z"/>
	<rect x="923.08" y="384.62" class="st0" width="38.46" height="500"/>
	<path class="st0" d="M307.69,538.46v38.46c0,21.26-17.2,38.46-38.46,38.46v38.46c21.26,0,38.46,17.2,38.46,38.46v38.46
		c0,42.52,34.4,76.92,76.92,76.92h38.46v-38.46h-38.46c-21.26,0-38.46-17.2-38.46-38.46v-38.46c0-23.02-10.14-43.6-26.13-57.69
		c16-14.09,26.13-34.67,26.13-57.69v-38.46c0-21.26,17.2-38.46,38.46-38.46h38.46v-38.46h-38.46
		C342.1,461.54,307.69,495.94,307.69,538.46z"/>
	<path class="st0" d="M730.76,615.38c-21.26,0-38.46-17.2-38.46-38.46v-38.46c0-42.52-34.41-76.92-76.92-76.92h-38.46V500h38.46
		c21.26,0,38.46,17.2,38.46,38.46v38.46c0,23.02,10.14,43.6,26.13,57.69c-16,14.09-26.13,34.67-26.13,57.69v38.46
		c0,21.26-17.2,38.46-38.46,38.46h-38.46v38.46h38.46c42.52,0,76.92-34.41,76.92-76.92v-38.46c0-21.26,17.2-38.46,38.46-38.46
		L730.76,615.38L730.76,615.38z"/>
	<path class="st0" d="M711.54,269.23h96.15c10.62,0,19.23,8.61,19.23,19.23v76.92c0,10.62-8.61,19.23-19.23,19.23h-96.15
		c-10.62,0-19.23-8.61-19.23-19.23v-76.92C692.31,277.84,700.92,269.23,711.54,269.23z M711.54,298.08v57.69
		c0,5.31,4.3,9.62,9.62,9.62h76.92c5.31,0,9.62-4.3,9.62-9.62v-57.69c0-5.31-4.3-9.62-9.62-9.62h-76.92
		C715.84,288.46,711.54,292.77,711.54,298.08z"/>
	<path class="st0" d="M946.15,346.15h-65.38c-8.5,0-15.38-6.89-15.38-15.38v-46.15c0-8.5,6.89-15.38,15.38-15.38h65.38
		c8.5,0,15.38,6.89,15.38,15.38v46.15C961.54,339.27,954.65,346.15,946.15,346.15z M944.23,321.15v-26.92c0-5.31-4.3-9.62-9.62-9.62
		h-42.31c-5.31,0-9.62,4.3-9.62,9.62v26.92c0,5.31,4.3,9.62,9.62,9.62h42.31C939.93,330.77,944.23,326.46,944.23,321.15z"/>
	<path class="st0" d="M663.46,230.77H548.08c-15.93,0-28.85-12.91-28.85-28.85v-96.15c0-15.93,12.91-28.85,28.85-28.85h115.38
		c15.93,0,28.85,12.91,28.85,28.85v96.15C692.31,217.85,679.39,230.77,663.46,230.77z M663.46,186.54v-65.38
		c0-8.5-6.89-15.38-15.38-15.38h-84.62c-8.5,0-15.38,6.89-15.38,15.38v65.38c0,8.5,6.89,15.38,15.38,15.38h84.62
		C656.57,201.92,663.46,195.04,663.46,186.54z"/>
	<path class="st0" d="M961.54,230.77H769.23c-21.24,0-38.46-17.22-38.46-38.46V38.46C730.77,17.22,747.99,0,769.23,0h192.31
		C982.78,0,1000,17.22,1000,38.46v153.85C1000,213.55,982.78,230.77,961.54,230.77z M966.35,177.88v-125
		c0-10.62-8.61-19.23-19.23-19.23H783.65c-10.62,0-19.23,8.61-19.23,19.23v125c0,10.62,8.61,19.23,19.23,19.23h163.46
		C957.74,197.12,966.35,188.51,966.35,177.88z"/>
</g>
</svg>
