<?xml version="1.0" encoding="utf-8"?>
<!-- Generator: Adobe Illustrator 23.0.1, SVG Export Plug-In . SVG Version: 6.00 Build 0)  -->
<svg version="1.1" id="Layer_1" xmlns="http://www.w3.org/2000/svg" xmlns:xlink="http://www.w3.org/1999/xlink" x="0px" y="0px"
	 viewBox="0 0 1000 1000" style="enable-background:new 0 0 1000 1000;" xml:space="preserve">
<style type="text/css">
	.st0{fill:#D20000;}
</style>
<g>
	<path class="st0" d="M1000,769.23v-76.92H769.23V538.46h-76.92L461.54,346.15v164.83L500,538.46h-38.46L230.77,346.15v164.83
		l38.46,27.47h-38.46L0,346.15V1000h1000v-76.92H769.23v-38.46H1000v-76.92H769.23v-38.46H1000z M230.77,903.85
		c0,10.62-8.61,19.23-19.23,19.23H96.15c-10.62,0-19.23-8.61-19.23-19.23v-76.92c0-10.62,8.61-19.23,19.23-19.23h115.38
		c10.62,0,19.23,8.61,19.23,19.23V903.85z M230.77,711.54c0,10.62-8.61,19.23-19.23,19.23H96.15c-10.62,0-19.23-8.61-19.23-19.23
		v-76.92c0-10.62,8.61-19.23,19.23-19.23h115.38c10.62,0,19.23,8.61,19.23,19.23V711.54z M461.54,903.85
		c0,10.62-8.61,19.23-19.23,19.23H326.92c-10.62,0-19.23-8.61-19.23-19.23v-76.92c0-10.62,8.61-19.23,19.23-19.23h115.39
		c10.62,0,19.23,8.61,19.23,19.23V903.85z M461.54,711.54c0,10.62-8.61,19.23-19.23,19.23H326.92c-10.62,0-19.23-8.61-19.23-19.23
		v-76.92c0-10.62,8.61-19.23,19.23-19.23h115.39c10.62,0,19.23,8.61,19.23,19.23V711.54z M692.31,903.85
		c0,10.62-8.61,19.23-19.23,19.23H557.69c-10.62,0-19.23-8.61-19.23-19.23v-76.92c0-10.62,8.61-19.23,19.23-19.23h115.39
		c10.62,0,19.23,8.61,19.23,19.23V903.85z M692.31,711.54c0,10.62-8.61,19.23-19.23,19.23H557.69c-10.62,0-19.23-8.61-19.23-19.23
		v-76.92c0-10.62,8.61-19.23,19.23-19.23h115.39c10.62,0,19.23,8.61,19.23,19.23V711.54z"/>
	<polygon class="st0" points="855.2,115.38 807.69,653.85 1000,653.85 952.49,115.38 	"/>
	<polygon class="st0" points="723.08,192.31 692.31,500 807.69,500 776.92,192.31 	"/>
	<polygon class="st0" points="773.08,153.85 769.23,115.38 730.77,115.38 726.92,153.85 	"/>
	<polygon class="st0" points="949.09,76.92 942.31,0 865.38,0 858.6,76.92 	"/>
</g>
</svg>
