<?xml version="1.0" encoding="utf-8"?>
<!-- Generator: Adobe Illustrator 23.0.1, SVG Export Plug-In . SVG Version: 6.00 Build 0)  -->
<svg version="1.1" id="Layer_1" xmlns="http://www.w3.org/2000/svg" xmlns:xlink="http://www.w3.org/1999/xlink" x="0px" y="0px"
	 viewBox="0 0 1000 1000" style="enable-background:new 0 0 1000 1000;" xml:space="preserve">
<style type="text/css">
	.st0{fill:#00A0E6;}
</style>
<g>
	<path class="st0" d="M1000,807.69C1000,913.9,913.9,1000,807.69,1000H173.08C77.49,1000,0,922.51,0,826.92
		c0-95.59,77.49-173.08,173.08-173.08c6.53,0,12.95,0.43,19.29,1.14c0-0.38-0.06-0.75-0.06-1.14c0-106.21,86.1-192.31,192.31-192.31
		c20.04,0,39.35,3.08,57.52,8.77c33.28-73.18,106.86-124.15,192.48-124.15c116.83,0,211.54,94.71,211.54,211.54
		c0,20.93-3.15,41.11-8.82,60.21C929.43,632.19,1000,711.59,1000,807.69z M807.69,653.85c-10.81,0-21.36,1.14-31.54,3.26
		c19.81-28.15,31.54-62.38,31.54-99.42c0-95.59-77.49-173.08-173.08-173.08c-83.66,0-153.46,59.36-169.57,138.26
		C441.62,508.46,414.14,500,384.62,500c-84.97,0-153.85,68.88-153.85,153.85c0,20.39,4.06,39.81,11.26,57.62
		c-20.19-12.08-43.72-19.16-68.95-19.16c-74.35,0-134.62,60.27-134.62,134.61c0,74.35,60.27,134.62,134.62,134.62h634.61
		c84.97,0,153.85-68.88,153.85-153.85S892.66,653.85,807.69,653.85z"/>
	<rect x="115.38" y="576.92" class="st0" width="38.46" height="38.46"/>
	<rect x="115.38" y="500" class="st0" width="38.46" height="38.46"/>
	<rect x="115.38" y="423.08" class="st0" width="38.46" height="38.46"/>
	<rect x="884.61" y="538.46" class="st0" width="38.46" height="38.46"/>
	<rect x="884.61" y="461.54" class="st0" width="38.46" height="38.46"/>
	<rect x="884.61" y="384.62" class="st0" width="38.46" height="38.46"/>
	<rect x="884.61" y="307.69" class="st0" width="38.46" height="38.46"/>
	<path class="st0" d="M230.77,0H38.46C17.22,0,0,17.22,0,38.46v307.69c0,21.24,17.22,38.46,38.46,38.46h192.31
		c21.24,0,38.46-17.22,38.46-38.46V38.46C269.23,17.22,252.01,0,230.77,0z M134.62,365.38c-10.62,0-19.23-8.61-19.23-19.23
		c0-10.62,8.61-19.23,19.23-19.23c10.62,0,19.23,8.61,19.23,19.23C153.85,356.77,145.24,365.38,134.62,365.38z M211.54,307.69H57.69
		c-10.62,0-19.23-8.61-19.23-19.23V57.69c0-10.62,8.61-19.23,19.23-19.23h153.85c10.62,0,19.23,8.61,19.23,19.23v230.77
		C230.77,299.08,222.16,307.69,211.54,307.69z"/>
	<path class="st0" d="M461.54,346.15c0,21.24-17.22,38.46-38.46,38.46c-21.24,0-38.46-17.22-38.46-38.46s17.22-38.46,38.46-38.46
		C444.32,307.69,461.54,324.91,461.54,346.15z M423.08,326.92c-10.62,0-19.23,8.61-19.23,19.23s8.61,19.23,19.23,19.23
		c10.62,0,19.23-8.61,19.23-19.23S433.7,326.92,423.08,326.92z"/>
	<path class="st0" d="M423.08,250c0,31.86-25.83,57.69-57.69,57.69s-57.69-25.83-57.69-57.69s25.83-57.69,57.69-57.69
		S423.08,218.14,423.08,250z M365.38,221.15c-15.93,0-28.85,12.91-28.85,28.85s12.91,28.85,28.85,28.85s28.85-12.91,28.85-28.85
		S381.32,221.15,365.38,221.15z"/>
	<path class="st0" d="M538.46,96.15c0,53.1-43.05,96.15-96.15,96.15s-96.15-43.05-96.15-96.15S389.2,0,442.31,0
		S538.46,43.05,538.46,96.15z M442.31,38.46c-31.86,0-57.69,25.83-57.69,57.69s25.83,57.69,57.69,57.69S500,128.02,500,96.15
		S474.17,38.46,442.31,38.46z"/>
	<path class="st0" d="M961.54,269.23H615.38c-21.24,0-38.46-17.22-38.46-38.46V38.46C576.92,17.22,594.14,0,615.38,0h346.15
		C982.78,0,1000,17.22,1000,38.46v192.31C1000,252.01,982.78,269.23,961.54,269.23z M961.54,211.54V57.69
		c0-10.62-8.61-19.23-19.23-19.23H634.61c-10.62,0-19.23,8.61-19.23,19.23v153.85c0,10.62,8.61,19.23,19.23,19.23h307.69
		C952.93,230.77,961.54,222.16,961.54,211.54z"/>
</g>
</svg>
